<svg id="Layer_1" data-name="Layer 1" xmlns="http://www.w3.org/2000/svg" viewBox="0 0 456 456"><path d="M429.32,22.5H71.68A49.23,49.23,0,0,0,22.5,71.68V429.32A49.23,49.23,0,0,0,71.68,478.5H429.32a49.23,49.23,0,0,0,49.18-49.18V71.68A49.23,49.23,0,0,0,429.32,22.5ZM443.5,429.32a14.19,14.19,0,0,1-14.18,14.18H71.68A14.19,14.19,0,0,1,57.5,429.32V71.68A14.19,14.19,0,0,1,71.68,57.5H429.32A14.19,14.19,0,0,1,443.5,71.68Z" transform="translate(-22.5 -22.5)"/><path d="M390.1,233H268V110.9a17.5,17.5,0,1,0-35,0V233H110.9a17.5,17.5,0,1,0,0,35H233V390.1a17.5,17.5,0,0,0,35,0V268H390.1a17.5,17.5,0,0,0,0-35Z" transform="translate(-22.5 -22.5)"/></svg>